<?xml version="1.0" encoding="UTF-8"?>
<svg version="1.1" xmlns="http://www.w3.org/2000/svg" width="512" height="512">
<path d="M0 0 C0.72248932 -0.00067474 1.44497864 -0.00134949 2.18936157 -0.00204468 C53.72700151 0.07382626 106.35789938 17.25150641 146.3125 50.25 C146.86856934 50.70455566 147.42463867 51.15911133 147.99755859 51.62744141 C162.03335124 63.1558538 174.50492983 75.64052493 185.3125 90.25 C185.74014648 90.81686523 186.16779297 91.38373047 186.60839844 91.96777344 C193.37233642 100.94368811 199.13190352 110.27893188 204.3125 120.25 C204.72000488 121.0322998 205.12750977 121.81459961 205.54736328 122.62060547 C232.86724187 175.77821455 239.04755924 239.17252938 221.35595703 296.34741211 C207.39085533 339.31245018 180.47514184 379.70214632 144.3125 407.25 C143.74418457 407.6840918 143.17586914 408.11818359 142.59033203 408.56542969 C121.21508775 424.80856932 97.77894757 437.6559794 72.3125 446.25 C71.57870117 446.49830566 70.84490234 446.74661133 70.08886719 447.00244141 C13.90435726 465.60598611 -48.66954992 458.65139723 -101.42089844 432.91650391 C-141.21023846 412.75627656 -173.66551833 380.85051332 -195.6875 342.25 C-196.1112793 341.51620117 -196.53505859 340.78240234 -196.97167969 340.02636719 C-208.66472295 319.57927001 -216.84074226 297.27976819 -221.6875 274.25 C-221.89632812 273.27708008 -222.10515625 272.30416016 -222.3203125 271.30175781 C-228.3918545 241.6645631 -228.23903118 208.77764873 -221.6875 179.25 C-221.50558105 178.40614746 -221.32366211 177.56229492 -221.13623047 176.69287109 C-216.91791757 157.68219018 -209.96050792 139.34944418 -200.6875 122.25 C-200.34638184 121.60401855 -200.00526367 120.95803711 -199.65380859 120.29248047 C-191.17369622 104.24464787 -180.70374553 89.82256649 -168.6875 76.25 C-167.8934375 75.34507813 -167.099375 74.44015625 -166.28125 73.5078125 C-158.3446081 64.56550022 -150.06658066 56.6740744 -140.6875 49.25 C-139.71039063 48.4559375 -138.73328125 47.661875 -137.7265625 46.84375 C-128.8752483 39.79837144 -119.46332237 33.92557323 -109.6875 28.25 C-109.06149902 27.88132812 -108.43549805 27.51265625 -107.79052734 27.1328125 C-75.50341557 8.27281419 -37.10653823 0.03141689 0 0 Z M-20.6875 18.25 C-18.85718886 23.49957371 -15.862812 27.86374976 -12.84765625 32.48828125 C-12.43128906 33.13925781 -12.01492187 33.79023437 -11.5859375 34.4609375 C-11.14296829 35.13894913 -10.69999908 35.81696075 -10.24360657 36.51551819 C-8.6875 39.25 -8.6875 39.25 -7.3346405 42.7809906 C-5.00951005 48.62817307 -2.66096408 53.71430258 3.30657959 56.41473389 C8.31211609 58.21342778 13.46933723 59.32896029 18.66015625 60.44921875 C20.56120463 60.90356653 22.46113411 61.36261905 24.35997009 61.8261261 C28.32373365 62.780212 32.29395694 63.69279349 36.2746582 64.57348633 C41.36982609 65.70184285 46.44255097 66.90754867 51.51305485 68.14152813 C55.42761068 69.08952536 59.34848206 70.00856926 63.27221489 70.91776466 C65.14625784 71.35317386 67.01890846 71.79462269 68.89006233 72.24228477 C71.50477945 72.8606632 74.12501699 73.44253307 76.75024414 74.0144043 C77.51667236 74.20158524 78.28310059 74.38876617 79.07275391 74.58161926 C83.10232061 75.41648613 85.51185259 75.50378216 89.16014099 73.45491028 C90.20041946 72.72728989 91.24069794 71.99966949 92.3125 71.25 C93.3025 70.57582031 94.2925 69.90164062 95.3125 69.20703125 C96.3025 68.49933594 97.2925 67.79164062 98.3125 67.0625 C105.40689324 62.05400858 112.82075842 57.63313511 120.3125 53.25 C88.61626645 26.61297295 19.68428152 4.79273949 -20.6875 18.25 Z M-47.1171875 22.05078125 C-47.98351807 22.28112061 -48.84984863 22.51145996 -49.74243164 22.7487793 C-50.6730542 23.01730713 -51.60367676 23.28583496 -52.5625 23.5625 C-53.53630615 23.83811768 -54.5101123 24.11373535 -55.51342773 24.39770508 C-89.91615795 34.49370765 -119.7924837 52.68799693 -145.6875 77.25 C-146.19071777 77.72453613 -146.69393555 78.19907227 -147.21240234 78.68798828 C-153.18010388 84.35241003 -158.69692778 90.23720919 -163.8125 96.6875 C-164.50484741 97.55628784 -164.50484741 97.55628784 -165.21118164 98.44262695 C-167.649991 101.59962457 -169.2938245 104.53182503 -170.6875 108.25 C-165.05999132 112.17422986 -159.40162288 116.05045632 -153.71972656 119.89550781 C-151.79211216 121.20799501 -149.87172302 122.53116136 -147.95898438 123.86523438 C-145.20208299 125.78532162 -142.42115599 127.66502762 -139.6328125 129.5390625 C-138.7876004 130.13997711 -137.94238831 130.74089172 -137.07156372 131.36001587 C-132.58579474 134.31760582 -129.78196801 135.73380054 -124.38818359 134.68310547 C-122.81247949 134.23531747 -121.2438131 133.7611233 -119.6875 133.25 C-118.74068359 133.03408203 -117.79386719 132.81816406 -116.81835938 132.59570312 C-116.06361328 132.40943359 -115.30886719 132.22316406 -114.53125 132.03125 C-105.90269211 129.95161614 -97.33186628 127.97474788 -88.5 127 C-87.78126709 126.91709717 -87.06253418 126.83419434 -86.32202148 126.7487793 C-81.6608941 126.275624 -77.17324829 126.27279476 -72.49902344 126.59594727 C-64.50489073 126.64053232 -64.50489073 126.64053232 -57.92138672 122.6315918 C-57.10376069 121.46542251 -56.31649511 120.27759413 -55.5546875 119.07421875 C-55.10721664 118.41800537 -54.65974579 117.76179199 -54.19871521 117.08569336 C-52.66746085 114.82439547 -51.17903168 112.53766471 -49.6875 110.25 C-48.51434987 108.50010636 -47.3387069 106.751882 -46.16088867 105.00512695 C-42.97236789 100.2579693 -39.82272104 95.48643344 -36.68725586 90.70410156 C-34.7330243 87.72411394 -32.77223796 84.74851865 -30.81054688 81.7734375 C-29.5517011 79.85962636 -28.29322401 77.94557266 -27.03515625 76.03125 C-26.16637596 74.71235779 -26.16637596 74.71235779 -25.28004456 73.36682129 C-23.73310929 71.00446114 -22.20789411 68.62949265 -20.6875 66.25 C-20.24553787 65.58858505 -19.80357574 64.9271701 -19.34822083 64.24571228 C-17.12748654 60.82127621 -17.12748654 60.82127621 -17.06860352 56.87329102 C-17.68626587 55.82419556 -17.68626587 55.82419556 -18.31640625 54.75390625 C-18.76943115 53.9551709 -19.22245605 53.15643555 -19.68920898 52.33349609 C-20.20427002 51.50156738 -20.71933105 50.66963867 -21.25 49.8125 C-21.75926025 48.94447754 -22.26852051 48.07645508 -22.79321289 47.18212891 C-24.38371669 44.51019978 -26.02282638 41.87627672 -27.6875 39.25 C-28.20022461 38.43998535 -28.71294922 37.6299707 -29.24121094 36.79541016 C-30.67912343 34.55527908 -32.14108492 32.33488491 -33.625 30.125 C-34.29607788 29.12255249 -34.29607788 29.12255249 -34.98071289 28.09985352 C-38.47633455 23.09172224 -40.93702509 20.38890534 -47.1171875 22.05078125 Z M105.6875 81.5625 C104.95966309 82.05331055 104.23182617 82.54412109 103.48193359 83.04980469 C102.48154053 83.76185059 102.48154053 83.76185059 101.4609375 84.48828125 C100.87489746 84.90118408 100.28885742 85.31408691 99.68505859 85.73950195 C97.76998895 87.84703235 97.68708357 89.42674278 97.3125 92.25 C97.43445063 94.5956313 97.64085868 96.93744785 97.90161133 99.27172852 C97.97628128 99.95853699 98.05095123 100.64534546 98.12788391 101.35296631 C98.37570108 103.61254722 98.63472798 105.87067448 98.89453125 108.12890625 C99.07098471 109.70396436 99.24697785 111.27907409 99.42253113 112.85423279 C99.79172858 116.15072573 100.16648097 119.44652724 100.54516602 122.74194336 C101.02977755 126.96308189 101.5005655 131.18562639 101.96721363 135.40878391 C102.32799199 138.65991905 102.69606773 141.91019608 103.06635094 145.16026115 C103.24281644 146.71691584 103.41701923 148.27382877 103.58890724 149.83099556 C103.8302706 152.00747385 104.08143612 154.18260402 104.33520508 156.35766602 C104.4758992 157.59500992 104.61659332 158.83235382 104.7615509 160.10719299 C105.38860262 163.68411607 105.98153374 166.27550054 108.96972656 168.46337891 C109.95150879 168.96490479 109.95150879 168.96490479 110.953125 169.4765625 C111.68692383 169.86312012 112.42072266 170.24967773 113.17675781 170.64794922 C113.96405273 171.05287598 114.75134766 171.45780273 115.5625 171.875 C126.89656878 177.9521339 136.89822315 185.05306938 146.6875 193.375 C147.28079102 193.87845947 147.87408203 194.38191895 148.48535156 194.90063477 C151.77523193 197.74879237 154.54653226 200.69037337 157.3125 204.0625 C159.65570479 206.42188076 160.7572844 207.21827615 164.12402344 207.41064453 C165.21231445 207.29833496 166.30060547 207.18602539 167.421875 207.0703125 C169.28682617 206.88964233 169.28682617 206.88964233 171.18945312 206.70532227 C172.56382137 206.5537229 173.93816963 206.40194234 175.3125 206.25 C176.7752451 206.10263358 178.2381407 205.9567545 179.70117188 205.81225586 C183.54139884 205.42649155 187.3772122 205.008237 191.21240234 204.57543945 C193.60040052 204.30825952 195.98955603 204.05359824 198.37890625 203.79882812 C199.90373137 203.6283676 201.42847456 203.45717219 202.953125 203.28515625 C204.02013641 203.17410301 204.02013641 203.17410301 205.10870361 203.06080627 C209.14664702 202.65337752 209.14664702 202.65337752 212.3125 200.25 C212.20225778 197.88907352 212.20225778 197.88907352 211.58984375 195.18359375 C211.38391602 194.14944336 211.17798828 193.11529297 210.96582031 192.04980469 C210.61148926 190.38546387 210.61148926 190.38546387 210.25 188.6875 C210.01249023 187.55086914 209.77498047 186.41423828 209.53027344 185.24316406 C202.09833492 150.46562924 186.6499432 118.20369566 163.3125 91.25 C162.60738281 90.43402344 161.90226562 89.61804688 161.17578125 88.77734375 C156.95365228 83.99428561 152.55804748 79.39955546 148.0625 74.875 C147.56709717 74.37492432 147.07169434 73.87484863 146.5612793 73.35961914 C132.70821666 59.56712143 119.74959229 71.86429617 105.6875 81.5625 Z M-108.6328125 147.30078125 C-111.11216193 147.91861081 -113.30303221 148.30671366 -115.8671875 148.54296875 C-118.90423271 148.9259789 -120.26543125 149.36943907 -122.6875 151.25 C-123.66182386 153.6510264 -124.32554824 155.79003978 -124.9296875 158.2890625 C-125.12978928 159.06018372 -125.32989105 159.83130493 -125.53605652 160.62579346 C-126.27273181 163.49590762 -126.97998126 166.37256048 -127.6875 169.25 C-128.15250486 171.10662126 -128.61754051 172.9632349 -129.08327389 174.81967354 C-131.05716094 182.69690381 -132.98602603 190.58474295 -134.90063477 198.4765625 C-135.82299859 202.27733934 -136.75452987 206.07580845 -137.68813801 209.87383652 C-138.41256741 212.82729064 -139.13078471 215.78222972 -139.8472805 218.73761749 C-140.18831349 220.13992032 -140.53157824 221.54168248 -140.87719154 222.94286346 C-141.35735588 224.89227839 -141.827925 226.8440491 -142.2980957 228.79589844 C-142.56725296 229.90076599 -142.83641022 231.00563354 -143.11372375 232.14398193 C-144.31278452 238.63484739 -143.5782577 242.36049942 -139.875 247.75 C-139.2703894 248.65468018 -139.2703894 248.65468018 -138.65356445 249.57763672 C-128.848771 264.01990838 -117.76541297 276.84293341 -103.9375 287.5625 C-103.33583008 288.04936279 -102.73416016 288.53622559 -102.11425781 289.0378418 C-101.52483398 289.47523682 -100.93541016 289.91263184 -100.328125 290.36328125 C-99.81797852 290.75298096 -99.30783203 291.14268066 -98.78222656 291.54418945 C-93.57355538 293.29923239 -86.62544117 290.84644428 -81.49291992 289.5 C-80.48890137 289.23884399 -80.48890137 289.23884399 -79.46459961 288.97241211 C-77.28108185 288.40314617 -75.09953629 287.82669013 -72.91796875 287.25 C-71.38970156 286.84984362 -69.86132338 286.45011093 -68.33283997 286.05078125 C-64.32977156 285.00360055 -60.32837924 283.95014734 -56.32727051 282.89550781 C-53.05527903 282.03422597 -49.78209578 281.17752758 -46.50884533 280.32104492 C-42.60313637 279.29895142 -38.6979847 278.27473762 -34.79296875 277.25 C-34.04905569 277.05486816 -33.30514263 276.85973633 -32.53868675 276.65869141 C-30.4371909 276.10693703 -28.3360823 275.55373439 -26.23510742 275 C-25.04012131 274.68546875 -23.84513519 274.3709375 -22.61393738 274.046875 C-20.62217594 273.50451421 -18.64585185 272.90278395 -16.6875 272.25 C-15.68082114 269.86023101 -15.68082114 269.86023101 -15.01757812 266.86669922 C-14.72717651 265.71394501 -14.4367749 264.5611908 -14.13757324 263.37350464 C-13.83436157 262.11329498 -13.5311499 260.85308533 -13.21875 259.5546875 C-12.89495288 258.24658046 -12.57010714 256.93873259 -12.2442627 255.63113403 C-11.56076426 252.8772053 -10.88571931 250.12139286 -10.21728516 247.36376953 C-9.37106053 243.87282934 -8.51126094 240.38544229 -7.64572906 236.89924431 C-6.81117863 233.53555272 -5.98335437 230.17021643 -5.15625 226.8046875 C-4.85303833 225.57281708 -4.54982666 224.34094666 -4.23742676 223.07174683 C-3.36346348 219.46972458 -2.52463216 215.8607373 -1.6875 212.25 C-1.4387915 211.2554266 -1.4387915 211.2554266 -1.18505859 210.2407608 C-0.67910306 208.21600023 -0.20357247 206.18593589 0.26757812 204.15283203 C0.55894653 202.94998566 0.85031494 201.74713928 1.1505127 200.50784302 C1.61907628 197.17279853 1.61907628 197.17279853 -0.36633301 194.44992065 C-2.65141356 192.09388481 -5.04069946 190.18726666 -7.6875 188.25 C-8.96857912 187.13668124 -10.24004137 186.01216605 -11.5 184.875 C-12.14582031 184.32070312 -12.79164063 183.76640625 -13.45703125 183.1953125 C-16.24615831 180.76276385 -18.96667549 178.25821386 -21.6875 175.75 C-24.98759256 172.71091151 -28.29699888 169.68843431 -31.6875 166.75 C-35.07801225 163.81155605 -38.38704682 160.78870721 -41.6875 157.75 C-48.58966512 151.38951225 -48.58966512 151.38951225 -55.6875 145.25 C-56.53248047 144.42435547 -56.53248047 144.42435547 -57.39453125 143.58203125 C-60.77815819 141.61641492 -64.07470682 141.84878348 -67.875 141.9375 C-68.67164063 141.9487793 -69.46828125 141.96005859 -70.2890625 141.97167969 C-83.33030219 142.2652621 -95.98320277 144.14291598 -108.6328125 147.30078125 Z M86.09130859 182.96240234 C85.02942574 183.23556023 85.02942574 183.23556023 83.9460907 183.51423645 C81.61608202 184.11538598 79.28849303 184.72536447 76.9609375 185.3359375 C75.33868805 185.75749868 73.71634159 186.17868672 72.09390259 186.59951782 C68.69860557 187.48167937 65.30448236 188.36819008 61.91113281 189.2578125 C57.5608068 190.39797169 53.20780768 191.52751427 48.85388756 192.65386009 C45.50539925 193.52129985 42.15835459 194.39420439 38.81172562 195.26878738 C37.20697764 195.68748159 35.60179165 196.10450069 33.99616623 196.51981735 C31.75425528 197.10062101 29.51438406 197.68871806 27.27490234 198.27880859 C25.36226089 198.7784462 25.36226089 198.7784462 23.41098022 199.28817749 C20.18849742 200.12821332 20.18849742 200.12821332 17.3125 202.25 C16.21427438 205.22245798 16.21427438 205.22245798 15.41137695 208.82348633 C15.16200378 209.83600212 15.16200378 209.83600212 14.90759277 210.86897278 C14.36035484 213.1040097 13.83033201 215.34274339 13.30078125 217.58203125 C12.92479658 219.13682302 12.54792779 220.69140124 12.17021179 222.24577332 C11.38045442 225.5066142 10.59869662 228.76923405 9.82299805 232.03344727 C8.82959128 236.21272232 7.82086257 240.3881014 6.80663776 244.56236744 C6.02732461 247.77403894 5.25404108 250.98713693 4.48277855 254.20075035 C4.11293297 255.74041827 3.74172917 257.27976059 3.3691349 258.81876564 C2.84877791 260.97395341 2.33603675 263.13081217 1.82543945 265.28833008 C1.53248489 266.51473709 1.23953033 267.7411441 0.93769836 269.00471497 C0.38294666 271.8843249 0.06814721 274.3341387 0.3125 277.25 C1.6871603 279.05006281 1.6871603 279.05006281 3.6875 280.5 C4.4196875 281.09554687 5.151875 281.69109375 5.90625 282.3046875 C7.09734375 283.26761719 7.09734375 283.26761719 8.3125 284.25 C9.94646222 285.6982847 11.57119942 287.15703081 13.1875 288.625 C14.02796875 289.38296875 14.8684375 290.1409375 15.734375 290.921875 C17.453125 292.47395833 19.171875 294.02604167 20.890625 295.578125 C24.6555085 298.97344938 28.42443551 302.36058342 32.25 305.6875 C35.47809512 308.49822525 38.64988443 311.365799 41.8125 314.25 C46.26323232 318.30620757 50.71950125 322.35467194 55.3125 326.25 C56.03308594 326.9925 56.75367188 327.735 57.49609375 328.5 C61.57392507 331.0337981 64.42813843 330.26026517 69 329.375 C69.83724609 329.22498535 70.67449219 329.0749707 71.53710938 328.92041016 C86.57412349 326.0367153 100.53604285 320.40388866 114.09667969 313.38378906 C115.5282468 312.65128601 116.97125828 311.94055096 118.42675781 311.25683594 C119.42594238 310.78552246 119.42594238 310.78552246 120.4453125 310.3046875 C121.02168457 310.04026855 121.59805664 309.77584961 122.19189453 309.50341797 C127.36486292 306.41634435 130.66018399 304.01532554 132.22775269 298.02822876 C132.46306198 296.98751724 132.46306198 296.98751724 132.703125 295.92578125 C132.89520538 295.16349213 133.08728577 294.401203 133.28518677 293.61581421 C133.72652209 291.85049415 134.1569221 290.08241912 134.57879639 288.31234741 C135.4010956 284.88021782 136.26071378 281.45854062 137.12353516 278.03637695 C138.83270282 271.23959572 140.49927337 264.43293697 142.15332031 257.62255859 C143.02254987 254.04535657 143.90329337 250.4710873 144.78642082 246.897295 C145.47033268 244.12100966 146.14597761 241.34276096 146.81933975 238.56389999 C147.29601309 236.60594304 147.78145666 234.65012793 148.26705933 232.69436646 C148.55130768 231.51148041 148.83555603 230.32859436 149.12841797 229.10986328 C149.38203094 228.07161407 149.63564392 227.03336487 149.89694214 225.96365356 C150.42979966 222.48401606 150.08637637 220.40823497 148.140625 217.49609375 C137.25445484 205.02011161 113.28018178 182.44046826 96.09512329 181.07363892 C92.60767657 181.29467131 89.47499381 182.08380419 86.09130859 182.96240234 Z M-162.76074219 249.69311523 C-164.05779083 249.83842934 -164.05779083 249.83842934 -165.38104248 249.98667908 C-166.32264221 250.09291092 -167.26424194 250.19914276 -168.234375 250.30859375 C-169.19772766 250.4172023 -170.16108032 250.52581085 -171.15362549 250.63771057 C-173.19815832 250.8685686 -175.24265181 251.09977522 -177.28710938 251.33129883 C-180.4099422 251.68438416 -183.53308925 252.03459455 -186.65625 252.38476562 C-188.64064527 252.60919581 -190.62502092 252.8337996 -192.609375 253.05859375 C-193.54287781 253.16280136 -194.47638062 253.26700897 -195.43817139 253.37437439 C-199.56369089 253.84475484 -203.63274204 254.32735729 -207.6875 255.25 C-202.23688284 295.8960308 -185.5653376 334.19979049 -158.6875 365.25 C-157.99398437 366.054375 -157.30046875 366.85875 -156.5859375 367.6875 C-154.32752819 370.24976801 -152.02253924 372.75733645 -149.6875 375.25 C-149.2239209 375.74757813 -148.7603418 376.24515625 -148.28271484 376.7578125 C-142.01276455 383.43260717 -135.4413154 389.5254175 -128.1875 395.125 C-127.51710693 395.65528809 -126.84671387 396.18557617 -126.15600586 396.73193359 C-122.53200543 399.48593059 -122.53200543 399.48593059 -118.1875 400.37109375 C-114.58623313 398.75615064 -111.42731793 396.67971063 -108.1875 394.4375 C-107.53652344 393.99857422 -106.88554687 393.55964844 -106.21484375 393.10742188 C-104.35425642 391.84259837 -102.50720819 390.57309934 -100.6875 389.25 C-99.33229248 388.40598633 -99.33229248 388.40598633 -97.94970703 387.54492188 C-95.34645526 385.39302722 -95.34645526 385.39302722 -95.40771484 381.95825195 C-95.54373619 380.63181312 -95.70955384 379.30823002 -95.8984375 377.98828125 C-95.98021744 377.26128021 -96.06199738 376.53427917 -96.14625549 375.7852478 C-96.42443701 373.37351641 -96.74161365 370.9688964 -97.0625 368.5625 C-97.27329326 366.87822637 -97.48233016 365.19373209 -97.68969727 363.5090332 C-98.01669756 360.85771349 -98.34638338 358.20695497 -98.68708801 355.55735779 C-99.39678451 349.96281584 -99.9604106 344.37526361 -100.40380859 338.75343323 C-100.69964526 335.04229938 -101.04207391 331.33612991 -101.38922119 327.62948608 C-101.54510054 325.8497458 -101.68115831 324.06814655 -101.79632568 322.28530884 C-102.19340397 311.81040331 -102.19340397 311.81040331 -107.52294922 303.30102539 C-110.7204441 300.92184047 -114.17116853 299.11289569 -117.6875 297.25 C-119.0599247 296.24387601 -120.4063595 295.19957924 -121.703125 294.09765625 C-122.24662598 293.63721924 -122.79012695 293.17678223 -123.35009766 292.70239258 C-123.87394043 292.24372803 -124.3977832 291.78506348 -124.9375 291.3125 C-125.52192871 290.80291748 -126.10635742 290.29333496 -126.70849609 289.76831055 C-139.55607052 278.39496069 -149.63456575 264.35255934 -157.6875 249.25 C-159.38956579 249.25 -161.0704769 249.50336181 -162.76074219 249.69311523 Z M134.3125 320.25 C131.65802309 321.66892763 129.16299531 323.14479633 126.625 324.75 C111.36937458 334.01587556 94.14467624 341.68476546 76.28515625 343.97265625 C75.47997559 344.07739258 74.67479492 344.18212891 73.84521484 344.29003906 C72.33784754 344.46516106 70.82563159 344.60431896 69.31103516 344.69824219 C66.02194192 345.05795058 63.97794432 345.55801415 61.63456726 347.99485779 C57.4256639 353.64070806 53.44444688 359.39603733 49.6015625 365.296875 C48.98912689 366.22993469 48.37669128 367.16299438 47.74569702 368.12432861 C45.80603252 371.08054585 43.87144478 374.04003847 41.9375 377 C40.01456608 379.93811142 38.09050701 382.87547033 36.16424561 385.81140137 C34.92410633 387.70315567 33.68679275 389.59676567 32.45245361 391.49230957 C29.82842584 395.5065216 27.18873361 399.4795203 24.32324219 403.32617188 C23.88628021 403.91924133 23.44931824 404.51231079 22.99911499 405.12335205 C21.87465416 406.63000582 20.72441287 408.11732895 19.57177734 409.60253906 C17.99231273 412.23917132 17.99231273 412.23917132 18.93359375 415.29638672 C20.16872444 417.94203316 21.43267472 420.47727336 22.9140625 422.9921875 C23.40390625 423.83007812 23.89375 424.66796875 24.3984375 425.53125 C24.90632812 426.3871875 25.41421875 427.243125 25.9375 428.125 C26.453125 429.00414062 26.96875 429.88328125 27.5 430.7890625 C28.76585573 432.9457056 30.03678407 435.09917988 31.3125 437.25 C69.95404704 435.73321076 110.92173387 414.39610715 139.3125 389.25 C140.50939453 388.21552734 140.50939453 388.21552734 141.73046875 387.16015625 C144.30140087 384.8998614 146.81407257 382.59020596 149.3125 380.25 C149.80476074 379.79173828 150.29702148 379.33347656 150.80419922 378.86132812 C166.09797019 364.80819017 166.09797019 364.80819017 176.3125 347.25 C170.81647424 343.56065869 165.31685921 339.87671684 159.81469727 336.1965332 C157.94276883 334.94354754 156.07167019 333.68932126 154.20141602 332.43383789 C151.51534967 330.63101797 148.82634545 328.83265873 146.13671875 327.03515625 C145.29912521 326.47159927 144.46153168 325.9080423 143.59855652 325.32740784 C142.81797379 324.80694382 142.03739105 324.2864798 141.2331543 323.75024414 C140.54698532 323.29057755 139.86081635 322.83091095 139.15385437 322.35731506 C137.20056529 321.09162996 137.20056529 321.09162996 134.3125 320.25 Z M-91.5 402.5625 C-94.47116337 404.85454032 -97.3240133 407.03997453 -100.57421875 408.91796875 C-101.27160156 409.35753906 -101.96898437 409.79710937 -102.6875 410.25 C-102.6875 410.91 -102.6875 411.57 -102.6875 412.25 C-71.89873601 430.10067359 -23.66980174 447.47280117 12.3125 439.25 C11.90668701 438.24296021 11.90668701 438.24296021 11.49267578 437.21557617 C10.63397384 435.05780776 9.83243358 432.87702507 9.06591797 430.68481445 C7.12129398 425.78693192 5.03136039 420.90404355 0.38049316 418.074646 C-5.35920456 415.65809271 -11.4741632 414.60698497 -17.5625 413.4375 C-19.50704549 413.01618796 -21.45023962 412.58859441 -23.39208984 412.1550293 C-27.42830531 411.26124008 -31.4695171 410.39996856 -35.51757812 409.56152344 C-41.66103437 408.27549715 -47.76130308 406.83648241 -53.859375 405.3515625 C-55.31460068 404.99760155 -55.31460068 404.99760155 -56.79922485 404.63648987 C-58.70661232 404.17189929 -60.613892 403.70686598 -62.52105713 403.24136353 C-66.96075133 402.16165436 -71.40505989 401.10205701 -75.8515625 400.05078125 C-76.62030701 399.86701935 -77.38905151 399.68325745 -78.18109131 399.493927 C-84.66684083 397.96421982 -86.36080966 398.55430439 -91.5 402.5625 Z " fill="#000000" transform="translate(253.6875,27.75)"/>
</svg>
